<svg width="50" height="50" viewBox="0 0 50 50" fill="none" xmlns="http://www.w3.org/2000/svg">
<path d="M6.96244 45.2282H11.0393C11.1117 45.7963 11.2777 46.345 11.5276 46.8455L11.834 47.5697H4.69474V46.3946H4.68416V26.5566C3.7324 26.9619 2.84086 26.9714 2.10069 26.6918C1.52288 26.4754 1.03459 26.0876 0.676508 25.5871C0.318428 25.0871 0.0909653 24.4784 0.0213837 23.8065C-0.0844127 22.765 0.196355 21.5886 0.997966 20.4834C1.03866 20.4293 1.08342 20.3752 1.13632 20.3301L24.3521 0.249029C24.6532 -0.0575807 25.1167 -0.0891434 25.4504 0.19943L48.7199 20.2445C48.7565 20.276 48.7887 20.3076 48.8212 20.3482C49.8995 21.6332 50.1681 23.0576 49.9077 24.2615C49.7779 24.8567 49.5215 25.3887 49.1675 25.8302C48.8135 26.272 48.3618 26.6147 47.8491 26.8172C47.0353 27.1423 46.0668 27.1328 45.0866 26.6192V45.2277H45.0878V47.5692H31.4918L31.6317 46.9898L31.6256 46.988C31.7066 46.6521 31.753 46.3076 31.7648 45.9627C31.8775 45.7305 31.9739 45.4847 32.0513 45.2277H42.8079V25.5105C42.8079 25.0551 26.8461 11.0741 25.0846 9.55462C23.2173 11.1283 6.96244 24.9965 6.96244 25.5826V45.2282ZM38.1488 1.60172L45.135 1.91734V12.3727L38.1488 7.26452V1.60172ZM28.9278 29.821C28.5689 30.0375 28.1209 29.8905 27.9276 29.4951C27.7327 29.0974 27.8654 28.6009 28.2243 28.3872C29.9211 27.3668 30.7113 26.048 30.8708 24.7579C30.955 24.069 30.8586 23.3773 30.625 22.7366C30.3862 22.0877 30.0078 21.4975 29.5284 21.0223C28.5958 20.0984 27.2872 19.6123 25.9208 19.9888C25.3666 20.1408 24.8872 20.4483 24.4677 20.8807C24.0217 21.3401 23.6364 21.9412 23.2986 22.6514C23.1086 23.0522 22.6626 23.2041 22.3033 22.9958C21.942 22.7848 21.8045 22.2911 21.9925 21.8929C22.4071 21.0223 22.8913 20.2747 23.4651 19.6817C24.0653 19.0649 24.7619 18.6217 25.5712 18.3999C27.4507 17.8845 29.2415 18.5414 30.514 19.8021C31.1597 20.4429 31.6732 21.2414 31.9963 22.1224C32.3214 23.0116 32.4541 23.9892 32.3312 24.9798C32.1119 26.7473 31.0897 28.5207 28.9278 29.821ZM23.2742 36.2756C20.4788 32.1148 20.4112 28.173 23.8044 24.5095L21.3609 23.0139C19.4037 22.1702 15.8131 28.3899 17.2011 30.0506L19.105 33.1802L18.7124 34.0883C18.6037 34.3584 18.7099 34.5478 18.9752 34.6786L19.2332 34.7561L15.2178 44.5784L16.2204 46.9474L18.2257 46.2932L18.7413 45.1822L18.2473 44.1568L19.3366 43.898L19.5897 43.3533L19.0208 42.3916L19.3943 41.5881L20.4812 41.4357L20.8356 40.6746L20.2285 39.7962L20.6163 38.963L21.7251 38.7628L22.2964 36.6102L22.5516 36.7653C22.9947 37.0633 23.2238 36.8713 23.2742 36.2756ZM28.5352 38.8845L28.7345 40.896L27.7103 41.3446L27.4959 42.2338L28.243 42.9363L28.0481 43.7456L27.0361 44.1406L26.8286 44.9955L27.5541 45.7832L27.4141 46.3626L26.4188 46.8622L27.0841 47.7302L26.7972 48.9129L25.002 50L23.5993 47.962L25.3368 37.9367L24.689 37.7446C24.5564 37.7045 24.4746 37.5521 24.5108 37.4024L24.783 36.2783C22.8213 34.6308 21.85 31.7788 22.5247 28.9824C23.3922 25.3905 26.6646 23.2222 29.9089 24.0288C29.9231 24.2209 29.9207 24.4157 29.8967 24.6109C29.8369 25.097 29.6464 25.5966 29.2944 26.08C29.2464 26.144 29.1956 26.2107 29.1427 26.2747C28.1063 26.1999 27.135 26.9425 26.8558 28.0964C26.735 28.5933 26.7618 29.0951 26.9039 29.5465C26.9376 29.7065 26.993 29.8616 27.065 30.0136C27.2363 30.3612 27.4865 30.625 27.7807 30.7932C27.9736 30.9343 28.1905 31.0416 28.4245 31.1138C29.5882 31.4583 30.7813 30.7156 31.1284 29.4473C31.4804 29.1028 31.7864 28.7398 32.0492 28.366C32.5603 27.6369 32.9094 26.8627 33.117 26.0746C34.5245 27.7568 35.1434 30.1795 34.5676 32.5616C33.8929 35.3576 31.7599 37.291 29.3209 37.6301L29.0483 38.7542C29.0125 38.9012 28.8749 38.9918 28.7398 38.9517L28.5352 38.8845Z" fill="#4670BB"/>
</svg>
