<svg width="50" height="50" viewBox="0 0 50 50" fill="none" xmlns="http://www.w3.org/2000/svg">
<g clip-path="url(#clip0_1_1748)">
<path d="M37.6268 24.9983H25.7518V29.3733C25.7518 32.4749 23.2283 34.9983 20.1268 34.9983C17.0252 34.9983 14.5018 32.4749 14.5018 29.3733V19.8733L9.43147 22.9202C7.92366 23.8186 7.00178 25.4514 7.00178 27.2014V30.8967L0.751782 34.5061C-0.443531 35.1936 -0.857593 36.7249 -0.162281 37.9202L6.08772 48.7483C6.77522 49.9436 8.30647 50.3499 9.50178 49.6624L17.5799 44.9983H28.2518C31.0096 44.9983 33.2518 42.7561 33.2518 39.9983H34.5018C35.8846 39.9983 37.0018 38.8811 37.0018 37.4983V32.4983H37.6268C38.6658 32.4983 39.5018 31.6624 39.5018 30.6233V26.8733C39.5018 25.8342 38.6658 24.9983 37.6268 24.9983ZM49.1658 22.0764L42.9158 11.2483C42.2283 10.053 40.6971 9.64675 39.5018 10.3342L31.4237 14.9983H23.4393C22.5018 14.9983 21.5877 15.2639 20.7908 15.7561L18.1737 17.3889C17.4393 17.8421 17.0018 18.6467 17.0018 19.5061V29.3733C17.0018 31.0999 18.4002 32.4983 20.1268 32.4983C21.8533 32.4983 23.2518 31.0999 23.2518 29.3733V22.4983H37.6268C40.0408 22.4983 42.0018 24.4592 42.0018 26.8733V29.0999L48.2518 25.4905C49.4471 24.7952 49.8533 23.2717 49.1658 22.0764Z" fill="#4670BB"/>
</g>
<defs>
<clipPath id="clip0_1_1748">
<rect width="50" height="50" fill="white"/>
</clipPath>
</defs>
</svg>
