<svg width="50" height="50" viewBox="0 0 50 50" fill="none" xmlns="http://www.w3.org/2000/svg">
<path fill-rule="evenodd" clip-rule="evenodd" d="M0 23.7283H10.1035V45.5138H0V23.7283ZM37.0653 12.0614C38.0659 12.0604 39.0442 12.4191 39.8765 13.092C40.7088 13.7649 41.3577 14.7218 41.7411 15.8417C42.1246 16.9616 42.2253 18.1942 42.0306 19.3835C41.8359 20.5728 41.3545 21.6654 40.6473 22.5231C39.9401 23.3808 39.0389 23.965 38.0577 24.2019C37.0764 24.4388 36.0592 24.3177 35.1348 23.8539C34.2103 23.3902 33.4202 22.6046 32.8642 21.5965C32.3083 20.5884 32.0115 19.4032 32.0115 18.1907C32.0126 16.5664 32.5453 15.0089 33.4927 13.8598C34.4401 12.7108 35.7249 12.064 37.0653 12.0614ZM37.0653 8.88579C38.8407 8.88555 40.5612 9.63127 41.9338 10.9959C43.3064 12.3605 44.246 14.2596 44.5927 16.3697C44.9394 18.4797 44.6717 20.6702 43.8352 22.5678C42.9986 24.4655 41.645 25.953 40.005 26.7769C38.365 27.6008 36.5399 27.7101 34.8408 27.0862C33.1417 26.4623 31.6737 25.1439 30.6868 23.3554C29.6999 21.567 29.2552 19.4192 29.4285 17.278C29.6018 15.1368 30.3824 13.1347 31.6372 11.6127C32.3486 10.7457 33.1944 10.0576 34.1259 9.5879C35.0574 9.11824 36.0564 8.87628 37.0653 8.87593V8.88579ZM41.9767 12.2389C40.8409 10.8632 39.3466 10.0073 37.7484 9.81691C36.1502 9.62657 34.547 10.1136 33.2118 11.195C31.8767 12.2765 30.8923 13.8854 30.4263 15.7477C29.9602 17.6101 30.0414 19.6106 30.656 21.4085C31.2706 23.2064 32.3806 24.6905 33.7969 25.608C35.2131 26.5254 36.848 26.8194 38.4231 26.4399C39.9982 26.0604 41.4159 25.0309 42.4349 23.5267C43.4538 22.0226 44.0109 20.1368 44.0113 18.1907C44.0128 17.0851 43.8338 15.99 43.4846 14.9685C43.1355 13.947 42.623 13.0194 41.9767 12.2389ZM36.7235 21.4452C36.577 21.429 36.4316 21.401 36.2881 21.3614C36.007 21.2909 35.7338 21.18 35.4743 21.031C35.2366 20.9006 35.0181 20.7241 34.8273 20.5083L35.4458 19.029C35.5993 19.216 35.7782 19.3695 35.9748 19.4827C36.1869 19.614 36.4108 19.7149 36.6422 19.7835C36.8388 19.847 37.0409 19.8818 37.2444 19.887C37.3904 19.894 37.5362 19.8707 37.6757 19.818C37.72 19.8007 37.7583 19.7662 37.7848 19.7199C37.8113 19.6735 37.8244 19.6179 37.8222 19.5616C37.8203 19.5153 37.8079 19.4705 37.7864 19.4322C37.7648 19.3939 37.735 19.3636 37.7001 19.3446C37.5822 19.2735 37.458 19.2189 37.3298 19.1819L36.4387 18.8811C36.2013 18.8028 35.9729 18.6885 35.7592 18.5408C35.5474 18.4043 35.367 18.206 35.2342 17.9639C35.0943 17.6979 35.0248 17.3865 35.0349 17.0714C35.0283 16.6657 35.1157 16.266 35.2871 15.9175C35.4648 15.5819 35.7193 15.3163 36.0196 15.1532C36.2396 15.0299 36.4745 14.9499 36.7154 14.9165V14.1078H37.6432V14.9313C37.8904 14.9631 38.1336 15.031 38.3675 15.1335C38.7092 15.2792 39.0224 15.5092 39.2871 15.809L38.6767 17.1651C38.4606 16.9541 38.2225 16.7783 37.9687 16.6424C37.6991 16.501 37.4079 16.4304 37.1142 16.4353C36.9897 16.432 36.8654 16.4469 36.7439 16.4796C36.6666 16.4996 36.5951 16.5439 36.5364 16.6078C36.5163 16.6325 36.5005 16.6618 36.49 16.694C36.4795 16.7262 36.4745 16.7606 36.4753 16.7952C36.4758 16.8433 36.4886 16.89 36.5119 16.9289C36.5352 16.9677 36.5679 16.9969 36.6055 17.0122C36.7821 17.1036 36.9645 17.1778 37.1508 17.2341L37.7856 17.4313C38.1733 17.5317 38.535 17.7449 38.8395 18.0526C38.9663 18.2061 39.0646 18.3907 39.1277 18.5939C39.1909 18.7972 39.2175 19.0145 39.2057 19.2312C39.2225 19.6819 39.1276 20.1285 38.9331 20.5133C38.7572 20.8438 38.5014 21.1004 38.2006 21.248C38.0237 21.3347 37.8395 21.3975 37.6513 21.4354V22.2786H36.7235V21.4452ZM12.1381 43.6844V25.4788H18.8969C21.7452 26.1002 24.6261 27.9838 27.4908 30.1683H32.7399C35.1162 30.3409 36.3573 33.2601 34.0501 35.1783C32.2109 36.8104 29.7817 36.7217 27.2955 36.4505C25.5783 36.3469 25.501 39.1428 27.2955 39.1527C27.914 39.2119 28.5894 39.0344 29.1835 39.0344C32.2882 39.0344 34.8477 38.3095 36.4143 35.3361L37.1996 33.1121L45.0082 28.4178C48.9145 26.8595 51.6896 31.8153 48.8128 35.2572C43.3684 40.0752 37.5444 44.2293 31.4256 47.6588C27.1205 50.8344 22.8113 50.7259 18.5022 47.6588L12.1381 43.6844ZM22.7177 2.70223C23.5459 2.70223 24.3554 2.99982 25.044 3.55736C25.7325 4.11491 26.2692 4.90737 26.5861 5.83454C26.903 6.7617 26.9859 7.78193 26.8244 8.7662C26.6628 9.75047 26.264 10.6546 25.6785 11.3642C25.0929 12.0738 24.3468 12.5571 23.5346 12.7529C22.7224 12.9487 21.8805 12.8482 21.1154 12.4641C20.3503 12.0801 19.6964 11.4297 19.2363 10.5953C18.7762 9.76088 18.5306 8.77986 18.5306 7.7763C18.5306 6.43057 18.9718 5.13996 19.757 4.18839C20.5422 3.23682 21.6072 2.70223 22.7177 2.70223ZM22.7177 5.90117e-07C24.2023 -0.000244453 25.6411 0.623337 26.7888 1.76449C27.9366 2.90565 28.7223 4.49377 29.0121 6.25826C29.3019 8.02274 29.0779 9.85442 28.3782 11.4412C27.6785 13.028 26.5465 14.2716 25.175 14.9603C23.8034 15.649 22.2773 15.7401 20.8565 15.218C19.4358 14.6959 18.2084 13.5931 17.3835 12.0973C16.5585 10.6015 16.1871 8.80533 16.3325 7.01487C16.4779 5.22442 17.131 3.55043 18.1807 2.27816C18.7762 1.55559 19.4835 0.982446 20.262 0.59153C21.0405 0.200614 21.875 -0.000397494 22.7177 5.90117e-07ZM26.7339 2.9044C25.8047 1.78227 24.5833 1.08511 23.2777 0.931604C21.972 0.7781 20.6628 1.17775 19.5729 2.0625C18.4831 2.94726 17.68 4.26242 17.3004 5.78407C16.9207 7.30573 16.988 8.9398 17.4908 10.4081C17.9936 11.8764 18.9008 13.0881 20.058 13.8369C21.2151 14.5857 22.5506 14.8254 23.8372 14.5151C25.1238 14.2048 26.2818 13.3637 27.1141 12.135C27.9465 10.9063 28.4017 9.36598 28.4022 7.7763C28.4035 6.87095 28.2566 5.97429 27.9703 5.13808C27.684 4.30188 27.2637 3.5427 26.7339 2.9044ZM22.4329 10.4736C22.3149 10.4736 22.1928 10.4341 22.0748 10.4046C21.8432 10.3432 21.618 10.2505 21.4034 10.1284C21.2074 10.0193 21.0263 9.87463 20.8663 9.69942L21.3831 8.4913C21.5092 8.64588 21.6565 8.77269 21.8185 8.86607C21.9949 8.9737 22.1805 9.05801 22.3719 9.11755C22.5342 9.16781 22.7008 9.19593 22.8683 9.20138C22.9893 9.20672 23.1102 9.18841 23.2264 9.14714C23.2635 9.13211 23.2955 9.10276 23.3176 9.06357C23.3396 9.02439 23.3505 8.97753 23.3484 8.93017C23.3476 8.89179 23.3375 8.85456 23.3194 8.82302C23.3014 8.79149 23.2761 8.76703 23.2467 8.75265C23.15 8.69188 23.0475 8.64552 22.9415 8.61458L22.201 8.38282C22.0047 8.31828 21.816 8.22383 21.6394 8.10175C21.4629 7.98349 21.3133 7.81408 21.204 7.60864C21.0894 7.38768 21.0326 7.1298 21.0413 6.86898C21.0361 6.53454 21.108 6.20499 21.2488 5.91728C21.3959 5.63681 21.6083 5.41546 21.8592 5.28118C22.0413 5.18229 22.2347 5.11745 22.4329 5.08887V4.39358H23.1938V5.07407C23.3978 5.10257 23.5984 5.15881 23.792 5.24173C24.0753 5.36541 24.3354 5.55654 24.557 5.80387L24.0565 6.9035C23.8766 6.73018 23.6798 6.58443 23.4705 6.46956C23.2462 6.35644 23.0054 6.29941 22.7625 6.30191C22.6598 6.29945 22.5573 6.3127 22.4573 6.34136C22.3936 6.35624 22.3345 6.39206 22.2864 6.44491C22.2694 6.4646 22.2559 6.48834 22.2468 6.51465C22.2377 6.54095 22.2332 6.56925 22.2335 6.59777C22.2348 6.63798 22.2459 6.67682 22.2655 6.70932C22.285 6.74183 22.3122 6.76651 22.3434 6.78022C22.4895 6.85599 22.6406 6.91702 22.795 6.96267L23.32 7.13033C23.6404 7.20562 23.9408 7.37492 24.1948 7.62344C24.2986 7.75317 24.3785 7.90823 24.429 8.07828C24.4795 8.24833 24.4996 8.42948 24.4878 8.60965C24.5015 8.98366 24.4236 9.35423 24.264 9.67476C24.1142 9.94526 23.9019 10.1562 23.6536 10.2813C23.5085 10.3535 23.3569 10.4049 23.202 10.4341V11.1344H22.4329V10.4736Z" fill="#4670BB"/>
</svg>
